# xmcd
#
# Track frame offsets: 
#        150
#        17992
#        34433
#        53511
#        72563
#        90448
#        111205
#        125864
#        144264
#        165654
#
# Disc length: 2581 seconds
#
# Revision: 0
# Processed by: cddbd v1.5.2PL0 Copyright (c) Steve Scherf et al.
# Submitted via: ExactAudioCopy v0.99pb5
#
DISCID=8b0a130a
DTITLE=Joe Romeo and The Orange County Volunteers - Joe Romeo and The Oran
DTITLE=ge County Volunteers
DYEAR=2009
DGENRE=Alt. Rock
TTITLE0=All Dressed Up
TTITLE1=Ancient Love
TTITLE2=Secrets Are Heavy
TTITLE3=Fight For You
TTITLE4=Dear Vivian
TTITLE5=Song Called Leah
TTITLE6=It Could Have Been
TTITLE7=Crazy Lary
TTITLE8=Wearing Me Out
TTITLE9=Train Tracks
EXTD=
EXTT0=
EXTT1=
EXTT2=
EXTT3=
EXTT4=
EXTT5=
EXTT6=
EXTT7=
EXTT8=
EXTT9=
PLAYORDER=
